<?xml version="1.0" standalone="no"?>
<!DOCTYPE svg PUBLIC "-//W3C//DTD SVG 20010904//EN"
 "http://www.w3.org/TR/2001/REC-SVG-20010904/DTD/svg10.dtd">
<svg version="1.0" xmlns="http://www.w3.org/2000/svg"
 width="334.000000pt" height="317.000000pt" viewBox="0 0 334.000000 317.000000"
 preserveAspectRatio="xMidYMid meet">
<metadata>
Created by potrace 1.16, written by Peter Selinger 2001-2019
</metadata>
<g transform="translate(0.000000,317.000000) scale(0.100000,-0.100000)"
fill="#000000" stroke="none">
<path d="M0 1585 l0 -1585 1670 0 1670 0 0 1585 0 1585 -1670 0 -1670 0 0
-1585z m2041 1251 c105 -24 200 -94 258 -190 57 -96 61 -127 61 -578 0 -356
-2 -408 -15 -408 -13 0 -15 50 -15 394 0 224 -4 416 -10 447 -20 106 -93 209
-185 264 -191 112 -441 33 -541 -170 -28 -58 -29 -66 -32 -227 l-4 -167 44 -3
43 -3 3 -117 3 -118 167 -2 c150 -3 167 -5 170 -20 3 -14 -3 -18 -27 -18 l-31
0 0 -130 0 -130 -80 0 c-64 0 -80 3 -80 15 0 12 14 15 65 15 l65 0 0 115 0
115 -140 0 -140 0 0 119 0 120 -42 3 -43 3 0 190 0 190 31 65 c39 79 110 152
187 191 97 50 184 60 288 35z m-41 -126 c62 -17 120 -97 120 -165 0 -13 -13
-49 -30 -80 -16 -31 -30 -69 -30 -84 0 -27 -24 -70 -47 -84 -8 -5 -13 -27 -13
-52 l0 -45 -50 0 -50 0 0 42 c0 31 -6 49 -25 68 -16 17 -29 45 -34 76 -4 27
-17 65 -29 84 -26 42 -29 117 -7 160 36 70 116 102 195 80z m-740 -770 c0
-224 -2 -260 -15 -260 -13 0 -15 36 -15 260 0 224 2 260 15 260 13 0 15 -36
15 -260z m-530 -480 l0 -50 -70 0 -70 0 0 -120 0 -120 60 0 60 0 0 -50 0 -50
-60 0 -60 0 0 -113 c0 -75 4 -117 12 -125 7 -7 38 -12 70 -12 l58 0 0 -45 0
-45 -86 0 c-81 0 -120 10 -136 34 -4 6 -8 176 -8 379 l0 367 115 0 115 0 0
-50z m268 26 c18 -9 42 -31 52 -49 19 -30 20 -52 20 -324 l0 -292 -31 -35
c-37 -43 -79 -56 -176 -56 l-73 0 0 391 0 391 88 -4 c56 -3 99 -11 120 -22z
m232 -233 c0 -137 4 -253 8 -259 10 -16 45 -25 59 -16 27 17 33 70 33 293 l0
229 45 0 45 0 0 -305 0 -305 -45 0 -45 0 0 51 c0 31 -4 48 -10 44 -5 -3 -10
-13 -10 -22 0 -8 -9 -28 -21 -44 -27 -38 -84 -41 -117 -6 -37 39 -42 81 -42
339 l0 248 50 0 50 0 0 -247z m190 -478 l0 -45 -145 0 -145 0 0 45 0 45 145 0
145 0 0 -45z m-539 -234 c21 -17 22 -22 11 -45 -10 -22 -9 -31 3 -49 13 -20
13 -26 -1 -45 -12 -18 -25 -22 -70 -22 l-54 0 0 90 0 90 44 0 c28 0 52 -7 67
-19z"/>
<path d="M1905 2676 c-81 -35 -107 -121 -61 -200 13 -23 27 -60 31 -84 4 -24
17 -52 28 -63 l22 -20 3 62 c2 48 0 65 -12 71 -12 7 -16 26 -16 80 0 68 1 70
23 63 29 -9 39 -9 60 0 15 6 17 0 17 -64 0 -54 -4 -73 -15 -77 -11 -5 -15 -23
-15 -71 l0 -65 23 14 c13 9 25 31 30 54 5 21 19 62 33 89 43 90 26 168 -46
205 -45 23 -64 24 -105 6z"/>
<path d="M880 1120 l0 -290 40 0 c29 0 42 5 50 19 14 26 14 516 0 542 -8 14
-21 19 -50 19 l-40 0 0 -290z"/>
</g>
</svg>
